<svg width="512" height="512" viewBox="0 0 680 680" role="img" xmlns="http://www.w3.org/2000/svg">
  <defs>
    <linearGradient id="bgGrad2" x1="0" y1="0" x2="1" y2="1">
      <stop offset="0%" stop-color="#1a1a2e"/>
      <stop offset="100%" stop-color="#0f0f1a"/>
    </linearGradient>
    <linearGradient id="goldGrad2" x1="0" y1="0" x2="0" y2="1">
      <stop offset="0%" stop-color="#f5c842"/>
      <stop offset="100%" stop-color="#c9962a"/>
    </linearGradient>
    <linearGradient id="coinGrad2" x1="0" y1="0" x2="0" y2="1">
      <stop offset="0%" stop-color="#f7d060"/>
      <stop offset="100%" stop-color="#b8860b"/>
    </linearGradient>
  </defs>
  <rect width="680" height="680" rx="120" fill="url(#bgGrad2)"/>
  <rect x="20" y="20" width="640" height="640" rx="100" fill="none" stroke="#c9962a" stroke-width="3" opacity="0.4"/>
  <rect x="130" y="360" width="80" height="180" rx="8" fill="url(#goldGrad2)" opacity="0.6"/>
  <rect x="240" y="280" width="80" height="260" rx="8" fill="url(#goldGrad2)" opacity="0.8"/>
  <rect x="350" y="200" width="80" height="340" rx="8" fill="url(#goldGrad2)"/>
  <polyline points="170,330 280,250 390,170 500,120" fill="none" stroke="#f5c842" stroke-width="6" stroke-linecap="round" stroke-linejoin="round"/>
  <circle cx="170" cy="330" r="10" fill="#f5c842"/>
  <circle cx="280" cy="250" r="10" fill="#f5c842"/>
  <circle cx="390" cy="170" r="10" fill="#f5c842"/>
  <circle cx="500" cy="120" r="10" fill="#f5c842"/>
  <circle cx="510" cy="430" r="90" fill="url(#coinGrad2)"/>
  <circle cx="510" cy="430" r="78" fill="none" stroke="#1a1a2e" stroke-width="4" opacity="0.3"/>
  <circle cx="510" cy="430" r="65" fill="#b8860b" opacity="0.3"/>
  <text x="510" y="458" text-anchor="middle" font-family="Georgia, serif" font-size="80" font-weight="700" fill="#1a1a2e" opacity="0.85">$</text>
  <line x1="510" y1="365" x2="510" y2="385" stroke="#1a1a2e" stroke-width="6" stroke-linecap="round" opacity="0.7"/>
  <line x1="510" y1="468" x2="510" y2="490" stroke="#1a1a2e" stroke-width="6" stroke-linecap="round" opacity="0.7"/>
  <line x1="100" y1="540" x2="580" y2="540" stroke="#c9962a" stroke-width="3" stroke-linecap="round" opacity="0.5"/>
  <circle cx="100" cy="600" r="6" fill="#c9962a" opacity="0.4"/>
  <circle cx="130" cy="600" r="6" fill="#c9962a" opacity="0.6"/>
  <circle cx="160" cy="600" r="6" fill="#c9962a" opacity="0.8"/>
  <circle cx="190" cy="600" r="6" fill="#c9962a"/>
</svg>